<svg xmlns="http://www.w3.org/2000/svg" viewBox="0 0 64 64" role="img" aria-label="Antojitos">
  <rect width="64" height="64" rx="14" fill="#e33127"/>
  <!-- Heart -->
  <path d="M32 49 C19 40 14 31 14 25 C14 19.5 18 16.5 22.5 16.5 C26.5 16.5 30 19.5 32 23.5 C34 19.5 37.5 16.5 41.5 16.5 C46 16.5 50 19.5 50 25 C50 31 45 40 32 49 Z" fill="#faf4e7"/>
  <!-- Spoon -->
  <ellipse cx="26" cy="27" rx="3.2" ry="4.2" fill="#e33127"/>
  <rect x="24.5" y="30" width="3" height="10" rx="1.5" fill="#e33127"/>
  <!-- Fork -->
  <rect x="36.5" y="30" width="3" height="10" rx="1.5" fill="#e33127"/>
  <rect x="35" y="27.4" width="6" height="2.6" rx="1.2" fill="#e33127"/>
  <rect x="35.3" y="22.5" width="1.4" height="6" rx="0.7" fill="#e33127"/>
  <rect x="37.3" y="22.5" width="1.4" height="6" rx="0.7" fill="#e33127"/>
  <rect x="39.3" y="22.5" width="1.4" height="6" rx="0.7" fill="#e33127"/>
</svg>
